<svg aria-roledescription="er" role="graphics-document document" viewBox="0 0 1112.8223876953125 649" style="max-width: 1112.8223876953125px;" xmlns="http://www.w3.org/2000/svg" width="100%" id="export-svg"><style xmlns="http://www.w3.org/1999/xhtml">@import url("https://cdnjs.cloudflare.com/ajax/libs/font-awesome/6.2.0/css/all.min.css"); p {margin: 0;}</style><style>#export-svg{font-family:arial,sans-serif;font-size:14px;fill:#333;}@keyframes edge-animation-frame{from{stroke-dashoffset:0;}}@keyframes dash{to{stroke-dashoffset:0;}}#export-svg .edge-animation-slow{stroke-dasharray:9,5!important;stroke-dashoffset:900;animation:dash 50s linear infinite;stroke-linecap:round;}#export-svg .edge-animation-fast{stroke-dasharray:9,5!important;stroke-dashoffset:900;animation:dash 20s linear infinite;stroke-linecap:round;}#export-svg .error-icon{fill:#ffffff;}#export-svg .error-text{fill:#000000;stroke:#000000;}#export-svg .edge-thickness-normal{stroke-width:2px;}#export-svg .edge-thickness-thick{stroke-width:3.5px;}#export-svg .edge-pattern-solid{stroke-dasharray:0;}#export-svg .edge-thickness-invisible{stroke-width:0;fill:none;}#export-svg .edge-pattern-dashed{stroke-dasharray:3;}#export-svg .edge-pattern-dotted{stroke-dasharray:2;}#export-svg .marker{fill:#000000;stroke:#000000;}#export-svg .marker.cross{stroke:#000000;}#export-svg svg{font-family:arial,sans-serif;font-size:14px;}#export-svg p{margin:0;}#export-svg .entityBox{fill:#ffffff;stroke:#000000;}#export-svg .attributeBoxOdd{fill:#ffffff;stroke:#000000;}#export-svg .attributeBoxEven{fill:#f2f2f2;stroke:#000000;}#export-svg .relationshipLabelBox{fill:#ffffff;opacity:0.7;background-color:#ffffff;}#export-svg .relationshipLabelBox rect{opacity:0.5;}#export-svg .relationshipLine{stroke:#000000;}#export-svg .entityTitleText{text-anchor:middle;font-size:18px;fill:#333;}#export-svg #MD_PARENT_START{fill:#f5f5f5!important;stroke:#000000!important;stroke-width:1;}#export-svg #MD_PARENT_END{fill:#f5f5f5!important;stroke:#000000!important;stroke-width:1;}#export-svg .node .neo-node{stroke:#000000;}#export-svg [data-look="neo"].node rect,#export-svg [data-look="neo"].cluster rect,#export-svg [data-look="neo"].node polygon{stroke:url(#export-svg-gradient);filter:drop-shadow( 0px 1px 2px rgba(0, 0, 0, 0.25));}#export-svg [data-look="neo"].node path{stroke:url(#export-svg-gradient);}#export-svg [data-look="neo"].node .outer-path{filter:drop-shadow( 0px 1px 2px rgba(0, 0, 0, 0.25));}#export-svg [data-look="neo"].node .neo-line path{stroke:hsl(0, 0%, 70%);filter:none;}#export-svg [data-look="neo"].node circle{stroke:url(#export-svg-gradient);filter:drop-shadow( 0px 1px 2px rgba(0, 0, 0, 0.25));}#export-svg [data-look="neo"].node circle .state-start{fill:#000000;}#export-svg [data-look="neo"].statediagram-cluster rect{fill:#ffffff;stroke:url(#export-svg-gradient);stroke-width:1px;}#export-svg [data-look="neo"].icon-shape .icon{fill:url(#export-svg-gradient);filter:drop-shadow( 0px 1px 2px rgba(0, 0, 0, 0.25));}#export-svg [data-look="neo"].icon-shape .icon-neo path{stroke:url(#export-svg-gradient);filter:drop-shadow( 0px 1px 2px rgba(0, 0, 0, 0.25));}#export-svg :root{--mermaid-font-family:"trebuchet ms",verdana,arial,sans-serif;}</style><g/><defs><marker orient="auto" markerHeight="240" markerWidth="190" refY="7" refX="0" id="MD_PARENT_START"><path d="M 18,7 L9,13 L1,7 L9,1 Z"/></marker></defs><defs><marker orient="auto" markerHeight="28" markerWidth="20" refY="7" refX="19" id="MD_PARENT_END"><path d="M 18,7 L9,13 L1,7 L9,1 Z"/></marker></defs><defs><marker orient="auto" markerHeight="18" markerWidth="18" refY="9" refX="0" id="ONLY_ONE_START"><path d="M9,0 L9,18 M15,0 L15,18" fill="none" stroke="gray"/></marker></defs><defs><marker orient="auto" markerHeight="18" markerWidth="18" refY="9" refX="18" id="ONLY_ONE_END"><path d="M3,0 L3,18 M9,0 L9,18" fill="none" stroke="gray"/></marker></defs><defs><marker orient="auto" markerHeight="18" markerWidth="30" refY="9" refX="0" id="ZERO_OR_ONE_START"><circle r="6" cy="9" cx="21" fill="white" stroke="gray"/><path d="M9,0 L9,18" fill="none" stroke="gray"/></marker></defs><defs><marker orient="auto" markerHeight="18" markerWidth="30" refY="9" refX="30" id="ZERO_OR_ONE_END"><circle r="6" cy="9" cx="9" fill="white" stroke="gray"/><path d="M21,0 L21,18" fill="none" stroke="gray"/></marker></defs><defs><marker orient="auto" markerHeight="36" markerWidth="45" refY="18" refX="18" id="ONE_OR_MORE_START"><path d="M0,18 Q 18,0 36,18 Q 18,36 0,18 M42,9 L42,27" fill="none" stroke="gray"/></marker></defs><defs><marker orient="auto" markerHeight="36" markerWidth="45" refY="18" refX="27" id="ONE_OR_MORE_END"><path d="M3,9 L3,27 M9,18 Q27,0 45,18 Q27,36 9,18" fill="none" stroke="gray"/></marker></defs><defs><marker orient="auto" markerHeight="36" markerWidth="57" refY="18" refX="18" id="ZERO_OR_MORE_START"><circle r="6" cy="18" cx="48" fill="white" stroke="gray"/><path d="M0,18 Q18,0 36,18 Q18,36 0,18" fill="none" stroke="gray"/></marker></defs><defs><marker orient="auto" markerHeight="36" markerWidth="57" refY="18" refX="39" id="ZERO_OR_MORE_END"><circle r="6" cy="18" cx="9" fill="white" stroke="gray"/><path d="M21,18 Q39,0 57,18 Q39,36 21,18" fill="none" stroke="gray"/></marker></defs><path marker-start="url(#ONLY_ONE_START)" marker-end="url(#ZERO_OR_MORE_END)" style="stroke: gray; fill: none;" d="M357.93,207.935L322.282,223.862C286.633,239.79,215.336,271.645,179.688,309.906C144.039,348.167,144.039,392.833,144.039,415.167L144.039,437.5" class="er relationshipLine"/><path marker-start="url(#ONLY_ONE_START)" marker-end="url(#ZERO_OR_MORE_END)" style="stroke: gray; fill: none;" d="M517.253,253.5L517.253,261.833C517.253,270.167,517.253,286.833,517.253,315.75C517.253,344.667,517.253,385.833,517.253,406.417L517.253,427" class="er relationshipLine"/><path marker-start="url(#ONLY_ONE_START)" marker-end="url(#ZERO_OR_MORE_END)" style="stroke: gray; fill: none;" d="M676.575,201.175L718.75,218.229C760.925,235.283,845.275,269.392,887.45,294.779C929.625,320.167,929.625,336.833,929.625,345.167L929.625,353.5" class="er relationshipLine"/><g transform="translate(357.93031311035156,20 )" id="entity-User-818c511a-4a32-5484-ba70-875d765a9175"><rect height="233.5" width="318.6451416015625" y="0" x="0" class="er entityBox"/><text transform="translate(159.32257080078125,11.75)" style="dominant-baseline: middle; text-anchor: middle; font-size: 12px;" y="0" x="0" id="text-entity-User-818c511a-4a32-5484-ba70-875d765a9175" class="er entityLabel">User</text><rect height="21" width="57.046875" y="23.5" x="0" class="er attributeBoxOdd"/><text transform="translate(5,34)" style="dominant-baseline: middle; font-size: 10.2px;" y="0" x="0" id="text-entity-User-818c511a-4a32-5484-ba70-875d765a9175-attr-1-type" class="er entityLabel">uuid</text><rect height="21" width="80.3046875" y="23.5" x="57.046875" class="er attributeBoxOdd"/><text transform="translate(62.046875,34)" style="dominant-baseline: middle; font-size: 10.2px;" y="0" x="0" id="text-entity-User-818c511a-4a32-5484-ba70-875d765a9175-attr-1-name" class="er entityLabel">id</text><rect height="21" width="23.803314208984375" y="23.5" x="137.3515625" class="er attributeBoxOdd"/><text transform="translate(142.3515625,34)" style="dominant-baseline: middle; font-size: 10.2px;" y="0" x="0" id="text-entity-User-818c511a-4a32-5484-ba70-875d765a9175-attr-1-key" class="er entityLabel">PK</text><rect height="21" width="157.49026489257812" y="23.5" x="161.15487670898438" class="er attributeBoxOdd"/><text transform="translate(166.15487670898438,34)" style="dominant-baseline: middle; font-size: 10.2px;" y="0" x="0" id="text-entity-User-818c511a-4a32-5484-ba70-875d765a9175-attr-1-comment" class="er entityLabel">Primary Key</text><rect height="21" width="57.046875" y="44.5" x="0" class="er attributeBoxEven"/><text transform="translate(5,55)" style="dominant-baseline: middle; font-size: 10.2px;" y="0" x="0" id="text-entity-User-818c511a-4a32-5484-ba70-875d765a9175-attr-2-type" class="er entityLabel">string</text><rect height="21" width="80.3046875" y="44.5" x="57.046875" class="er attributeBoxEven"/><text transform="translate(62.046875,55)" style="dominant-baseline: middle; font-size: 10.2px;" y="0" x="0" id="text-entity-User-818c511a-4a32-5484-ba70-875d765a9175-attr-2-name" class="er entityLabel">firstName</text><rect height="21" width="23.803314208984375" y="44.5" x="137.3515625" class="er attributeBoxEven"/><text transform="translate(142.3515625,55)" style="dominant-baseline: middle; font-size: 10.2px;" y="0" x="0" id="text-entity-User-818c511a-4a32-5484-ba70-875d765a9175-attr-2-key" class="er entityLabel"/><rect height="21" width="157.49026489257812" y="44.5" x="161.15487670898438" class="er attributeBoxEven"/><text transform="translate(166.15487670898438,55)" style="dominant-baseline: middle; font-size: 10.2px;" y="0" x="0" id="text-entity-User-818c511a-4a32-5484-ba70-875d765a9175-attr-2-comment" class="er entityLabel">First Name</text><rect height="21" width="57.046875" y="65.5" x="0" class="er attributeBoxOdd"/><text transform="translate(5,76)" style="dominant-baseline: middle; font-size: 10.2px;" y="0" x="0" id="text-entity-User-818c511a-4a32-5484-ba70-875d765a9175-attr-3-type" class="er entityLabel">string</text><rect height="21" width="80.3046875" y="65.5" x="57.046875" class="er attributeBoxOdd"/><text transform="translate(62.046875,76)" style="dominant-baseline: middle; font-size: 10.2px;" y="0" x="0" id="text-entity-User-818c511a-4a32-5484-ba70-875d765a9175-attr-3-name" class="er entityLabel">lastName</text><rect height="21" width="23.803314208984375" y="65.5" x="137.3515625" class="er attributeBoxOdd"/><text transform="translate(142.3515625,76)" style="dominant-baseline: middle; font-size: 10.2px;" y="0" x="0" id="text-entity-User-818c511a-4a32-5484-ba70-875d765a9175-attr-3-key" class="er entityLabel"/><rect height="21" width="157.49026489257812" y="65.5" x="161.15487670898438" class="er attributeBoxOdd"/><text transform="translate(166.15487670898438,76)" style="dominant-baseline: middle; font-size: 10.2px;" y="0" x="0" id="text-entity-User-818c511a-4a32-5484-ba70-875d765a9175-attr-3-comment" class="er entityLabel">Last Name</text><rect height="21" width="57.046875" y="86.5" x="0" class="er attributeBoxEven"/><text transform="translate(5,97)" style="dominant-baseline: middle; font-size: 10.2px;" y="0" x="0" id="text-entity-User-818c511a-4a32-5484-ba70-875d765a9175-attr-4-type" class="er entityLabel">string</text><rect height="21" width="80.3046875" y="86.5" x="57.046875" class="er attributeBoxEven"/><text transform="translate(62.046875,97)" style="dominant-baseline: middle; font-size: 10.2px;" y="0" x="0" id="text-entity-User-818c511a-4a32-5484-ba70-875d765a9175-attr-4-name" class="er entityLabel">email</text><rect height="21" width="23.803314208984375" y="86.5" x="137.3515625" class="er attributeBoxEven"/><text transform="translate(142.3515625,97)" style="dominant-baseline: middle; font-size: 10.2px;" y="0" x="0" id="text-entity-User-818c511a-4a32-5484-ba70-875d765a9175-attr-4-key" class="er entityLabel"/><rect height="21" width="157.49026489257812" y="86.5" x="161.15487670898438" class="er attributeBoxEven"/><text transform="translate(166.15487670898438,97)" style="dominant-baseline: middle; font-size: 10.2px;" y="0" x="0" id="text-entity-User-818c511a-4a32-5484-ba70-875d765a9175-attr-4-comment" class="er entityLabel">Email (Unique)</text><rect height="21" width="57.046875" y="107.5" x="0" class="er attributeBoxOdd"/><text transform="translate(5,118)" style="dominant-baseline: middle; font-size: 10.2px;" y="0" x="0" id="text-entity-User-818c511a-4a32-5484-ba70-875d765a9175-attr-5-type" class="er entityLabel">string</text><rect height="21" width="80.3046875" y="107.5" x="57.046875" class="er attributeBoxOdd"/><text transform="translate(62.046875,118)" style="dominant-baseline: middle; font-size: 10.2px;" y="0" x="0" id="text-entity-User-818c511a-4a32-5484-ba70-875d765a9175-attr-5-name" class="er entityLabel">password</text><rect height="21" width="23.803314208984375" y="107.5" x="137.3515625" class="er attributeBoxOdd"/><text transform="translate(142.3515625,118)" style="dominant-baseline: middle; font-size: 10.2px;" y="0" x="0" id="text-entity-User-818c511a-4a32-5484-ba70-875d765a9175-attr-5-key" class="er entityLabel"/><rect height="21" width="157.49026489257812" y="107.5" x="161.15487670898438" class="er attributeBoxOdd"/><text transform="translate(166.15487670898438,118)" style="dominant-baseline: middle; font-size: 10.2px;" y="0" x="0" id="text-entity-User-818c511a-4a32-5484-ba70-875d765a9175-attr-5-comment" class="er entityLabel">Hashed Password</text><rect height="21" width="57.046875" y="128.5" x="0" class="er attributeBoxEven"/><text transform="translate(5,139)" style="dominant-baseline: middle; font-size: 10.2px;" y="0" x="0" id="text-entity-User-818c511a-4a32-5484-ba70-875d765a9175-attr-6-type" class="er entityLabel">boolean</text><rect height="21" width="80.3046875" y="128.5" x="57.046875" class="er attributeBoxEven"/><text transform="translate(62.046875,139)" style="dominant-baseline: middle; font-size: 10.2px;" y="0" x="0" id="text-entity-User-818c511a-4a32-5484-ba70-875d765a9175-attr-6-name" class="er entityLabel">agreedToTerms</text><rect height="21" width="23.803314208984375" y="128.5" x="137.3515625" class="er attributeBoxEven"/><text transform="translate(142.3515625,139)" style="dominant-baseline: middle; font-size: 10.2px;" y="0" x="0" id="text-entity-User-818c511a-4a32-5484-ba70-875d765a9175-attr-6-key" class="er entityLabel"/><rect height="21" width="157.49026489257812" y="128.5" x="161.15487670898438" class="er attributeBoxEven"/><text transform="translate(166.15487670898438,139)" style="dominant-baseline: middle; font-size: 10.2px;" y="0" x="0" id="text-entity-User-818c511a-4a32-5484-ba70-875d765a9175-attr-6-comment" class="er entityLabel">Terms Agreement</text><rect height="21" width="57.046875" y="149.5" x="0" class="er attributeBoxOdd"/><text transform="translate(5,160)" style="dominant-baseline: middle; font-size: 10.2px;" y="0" x="0" id="text-entity-User-818c511a-4a32-5484-ba70-875d765a9175-attr-7-type" class="er entityLabel">string</text><rect height="21" width="80.3046875" y="149.5" x="57.046875" class="er attributeBoxOdd"/><text transform="translate(62.046875,160)" style="dominant-baseline: middle; font-size: 10.2px;" y="0" x="0" id="text-entity-User-818c511a-4a32-5484-ba70-875d765a9175-attr-7-name" class="er entityLabel">profileImageUrl</text><rect height="21" width="23.803314208984375" y="149.5" x="137.3515625" class="er attributeBoxOdd"/><text transform="translate(142.3515625,160)" style="dominant-baseline: middle; font-size: 10.2px;" y="0" x="0" id="text-entity-User-818c511a-4a32-5484-ba70-875d765a9175-attr-7-key" class="er entityLabel"/><rect height="21" width="157.49026489257812" y="149.5" x="161.15487670898438" class="er attributeBoxOdd"/><text transform="translate(166.15487670898438,160)" style="dominant-baseline: middle; font-size: 10.2px;" y="0" x="0" id="text-entity-User-818c511a-4a32-5484-ba70-875d765a9175-attr-7-comment" class="er entityLabel">Profile Image</text><rect height="21" width="57.046875" y="170.5" x="0" class="er attributeBoxEven"/><text transform="translate(5,181)" style="dominant-baseline: middle; font-size: 10.2px;" y="0" x="0" id="text-entity-User-818c511a-4a32-5484-ba70-875d765a9175-attr-8-type" class="er entityLabel">timestamp</text><rect height="21" width="80.3046875" y="170.5" x="57.046875" class="er attributeBoxEven"/><text transform="translate(62.046875,181)" style="dominant-baseline: middle; font-size: 10.2px;" y="0" x="0" id="text-entity-User-818c511a-4a32-5484-ba70-875d765a9175-attr-8-name" class="er entityLabel">createdAt</text><rect height="21" width="23.803314208984375" y="170.5" x="137.3515625" class="er attributeBoxEven"/><text transform="translate(142.3515625,181)" style="dominant-baseline: middle; font-size: 10.2px;" y="0" x="0" id="text-entity-User-818c511a-4a32-5484-ba70-875d765a9175-attr-8-key" class="er entityLabel"/><rect height="21" width="157.49026489257812" y="170.5" x="161.15487670898438" class="er attributeBoxEven"/><text transform="translate(166.15487670898438,181)" style="dominant-baseline: middle; font-size: 10.2px;" y="0" x="0" id="text-entity-User-818c511a-4a32-5484-ba70-875d765a9175-attr-8-comment" class="er entityLabel">Creation Timestamp</text><rect height="21" width="57.046875" y="191.5" x="0" class="er attributeBoxOdd"/><text transform="translate(5,202)" style="dominant-baseline: middle; font-size: 10.2px;" y="0" x="0" id="text-entity-User-818c511a-4a32-5484-ba70-875d765a9175-attr-9-type" class="er entityLabel">timestamp</text><rect height="21" width="80.3046875" y="191.5" x="57.046875" class="er attributeBoxOdd"/><text transform="translate(62.046875,202)" style="dominant-baseline: middle; font-size: 10.2px;" y="0" x="0" id="text-entity-User-818c511a-4a32-5484-ba70-875d765a9175-attr-9-name" class="er entityLabel">updatedAt</text><rect height="21" width="23.803314208984375" y="191.5" x="137.3515625" class="er attributeBoxOdd"/><text transform="translate(142.3515625,202)" style="dominant-baseline: middle; font-size: 10.2px;" y="0" x="0" id="text-entity-User-818c511a-4a32-5484-ba70-875d765a9175-attr-9-key" class="er entityLabel"/><rect height="21" width="157.49026489257812" y="191.5" x="161.15487670898438" class="er attributeBoxOdd"/><text transform="translate(166.15487670898438,202)" style="dominant-baseline: middle; font-size: 10.2px;" y="0" x="0" id="text-entity-User-818c511a-4a32-5484-ba70-875d765a9175-attr-9-comment" class="er entityLabel">Last Update Timestamp</text><rect height="21" width="57.046875" y="212.5" x="0" class="er attributeBoxEven"/><text transform="translate(5,223)" style="dominant-baseline: middle; font-size: 10.2px;" y="0" x="0" id="text-entity-User-818c511a-4a32-5484-ba70-875d765a9175-attr-10-type" class="er entityLabel">string</text><rect height="21" width="80.3046875" y="212.5" x="57.046875" class="er attributeBoxEven"/><text transform="translate(62.046875,223)" style="dominant-baseline: middle; font-size: 10.2px;" y="0" x="0" id="text-entity-User-818c511a-4a32-5484-ba70-875d765a9175-attr-10-name" class="er entityLabel">role</text><rect height="21" width="23.803314208984375" y="212.5" x="137.3515625" class="er attributeBoxEven"/><text transform="translate(142.3515625,223)" style="dominant-baseline: middle; font-size: 10.2px;" y="0" x="0" id="text-entity-User-818c511a-4a32-5484-ba70-875d765a9175-attr-10-key" class="er entityLabel"/><rect height="21" width="157.49026489257812" y="212.5" x="161.15487670898438" class="er attributeBoxEven"/><text transform="translate(166.15487670898438,223)" style="dominant-baseline: middle; font-size: 10.2px;" y="0" x="0" id="text-entity-User-818c511a-4a32-5484-ba70-875d765a9175-attr-10-comment" class="er entityLabel">User Role (employee, admin, hr)</text></g><g transform="translate(20,437.5 )" id="entity-Chat-28de1b5f-1ec4-5e23-9075-f668c8ae6d11"><rect height="107.5" width="248.07886505126953" y="0" x="0" class="er entityBox"/><text transform="translate(124.03943252563477,11.75)" style="dominant-baseline: middle; text-anchor: middle; font-size: 12px;" y="0" x="0" id="text-entity-Chat-28de1b5f-1ec4-5e23-9075-f668c8ae6d11" class="er entityLabel">Chat</text><rect height="21" width="57.046875" y="23.5" x="0" class="er attributeBoxOdd"/><text transform="translate(5,34)" style="dominant-baseline: middle; font-size: 10.2px;" y="0" x="0" id="text-entity-Chat-28de1b5f-1ec4-5e23-9075-f668c8ae6d11-attr-1-type" class="er entityLabel">uuid</text><rect height="21" width="56.4921875" y="23.5" x="57.046875" class="er attributeBoxOdd"/><text transform="translate(62.046875,34)" style="dominant-baseline: middle; font-size: 10.2px;" y="0" x="0" id="text-entity-Chat-28de1b5f-1ec4-5e23-9075-f668c8ae6d11-attr-1-name" class="er entityLabel">id</text><rect height="21" width="23.803314208984375" y="23.5" x="113.5390625" class="er attributeBoxOdd"/><text transform="translate(118.5390625,34)" style="dominant-baseline: middle; font-size: 10.2px;" y="0" x="0" id="text-entity-Chat-28de1b5f-1ec4-5e23-9075-f668c8ae6d11-attr-1-key" class="er entityLabel">PK</text><rect height="21" width="110.73648834228516" y="23.5" x="137.34237670898438" class="er attributeBoxOdd"/><text transform="translate(142.34237670898438,34)" style="dominant-baseline: middle; font-size: 10.2px;" y="0" x="0" id="text-entity-Chat-28de1b5f-1ec4-5e23-9075-f668c8ae6d11-attr-1-comment" class="er entityLabel">Primary Key</text><rect height="21" width="57.046875" y="44.5" x="0" class="er attributeBoxEven"/><text transform="translate(5,55)" style="dominant-baseline: middle; font-size: 10.2px;" y="0" x="0" id="text-entity-Chat-28de1b5f-1ec4-5e23-9075-f668c8ae6d11-attr-2-type" class="er entityLabel">timestamp</text><rect height="21" width="56.4921875" y="44.5" x="57.046875" class="er attributeBoxEven"/><text transform="translate(62.046875,55)" style="dominant-baseline: middle; font-size: 10.2px;" y="0" x="0" id="text-entity-Chat-28de1b5f-1ec4-5e23-9075-f668c8ae6d11-attr-2-name" class="er entityLabel">createdAt</text><rect height="21" width="23.803314208984375" y="44.5" x="113.5390625" class="er attributeBoxEven"/><text transform="translate(118.5390625,55)" style="dominant-baseline: middle; font-size: 10.2px;" y="0" x="0" id="text-entity-Chat-28de1b5f-1ec4-5e23-9075-f668c8ae6d11-attr-2-key" class="er entityLabel"/><rect height="21" width="110.73648834228516" y="44.5" x="137.34237670898438" class="er attributeBoxEven"/><text transform="translate(142.34237670898438,55)" style="dominant-baseline: middle; font-size: 10.2px;" y="0" x="0" id="text-entity-Chat-28de1b5f-1ec4-5e23-9075-f668c8ae6d11-attr-2-comment" class="er entityLabel">Creation Timestamp</text><rect height="21" width="57.046875" y="65.5" x="0" class="er attributeBoxOdd"/><text transform="translate(5,76)" style="dominant-baseline: middle; font-size: 10.2px;" y="0" x="0" id="text-entity-Chat-28de1b5f-1ec4-5e23-9075-f668c8ae6d11-attr-3-type" class="er entityLabel">json</text><rect height="21" width="56.4921875" y="65.5" x="57.046875" class="er attributeBoxOdd"/><text transform="translate(62.046875,76)" style="dominant-baseline: middle; font-size: 10.2px;" y="0" x="0" id="text-entity-Chat-28de1b5f-1ec4-5e23-9075-f668c8ae6d11-attr-3-name" class="er entityLabel">messages</text><rect height="21" width="23.803314208984375" y="65.5" x="113.5390625" class="er attributeBoxOdd"/><text transform="translate(118.5390625,76)" style="dominant-baseline: middle; font-size: 10.2px;" y="0" x="0" id="text-entity-Chat-28de1b5f-1ec4-5e23-9075-f668c8ae6d11-attr-3-key" class="er entityLabel"/><rect height="21" width="110.73648834228516" y="65.5" x="137.34237670898438" class="er attributeBoxOdd"/><text transform="translate(142.34237670898438,76)" style="dominant-baseline: middle; font-size: 10.2px;" y="0" x="0" id="text-entity-Chat-28de1b5f-1ec4-5e23-9075-f668c8ae6d11-attr-3-comment" class="er entityLabel">Chat Message History</text><rect height="21" width="57.046875" y="86.5" x="0" class="er attributeBoxEven"/><text transform="translate(5,97)" style="dominant-baseline: middle; font-size: 10.2px;" y="0" x="0" id="text-entity-Chat-28de1b5f-1ec4-5e23-9075-f668c8ae6d11-attr-4-type" class="er entityLabel">uuid</text><rect height="21" width="56.4921875" y="86.5" x="57.046875" class="er attributeBoxEven"/><text transform="translate(62.046875,97)" style="dominant-baseline: middle; font-size: 10.2px;" y="0" x="0" id="text-entity-Chat-28de1b5f-1ec4-5e23-9075-f668c8ae6d11-attr-4-name" class="er entityLabel">userId</text><rect height="21" width="23.803314208984375" y="86.5" x="113.5390625" class="er attributeBoxEven"/><text transform="translate(118.5390625,97)" style="dominant-baseline: middle; font-size: 10.2px;" y="0" x="0" id="text-entity-Chat-28de1b5f-1ec4-5e23-9075-f668c8ae6d11-attr-4-key" class="er entityLabel">FK</text><rect height="21" width="110.73648834228516" y="86.5" x="137.34237670898438" class="er attributeBoxEven"/><text transform="translate(142.34237670898438,97)" style="dominant-baseline: middle; font-size: 10.2px;" y="0" x="0" id="text-entity-Chat-28de1b5f-1ec4-5e23-9075-f668c8ae6d11-attr-4-comment" class="er entityLabel">Foreign Key to User</text></g><g transform="translate(368.078857421875,427 )" id="entity-Reservation-70007923-3dac-5120-988e-1bc40ae9999e"><rect height="128.5" width="298.34806060791016" y="0" x="0" class="er entityBox"/><text transform="translate(149.17403030395508,11.75)" style="dominant-baseline: middle; text-anchor: middle; font-size: 12px;" y="0" x="0" id="text-entity-Reservation-70007923-3dac-5120-988e-1bc40ae9999e" class="er entityLabel">Reservation</text><rect height="21" width="57.046875" y="23.5" x="0" class="er attributeBoxOdd"/><text transform="translate(5,34)" style="dominant-baseline: middle; font-size: 10.2px;" y="0" x="0" id="text-entity-Reservation-70007923-3dac-5120-988e-1bc40ae9999e-attr-1-type" class="er entityLabel">uuid</text><rect height="21" width="116.19029235839844" y="23.5" x="57.046875" class="er attributeBoxOdd"/><text transform="translate(62.046875,34)" style="dominant-baseline: middle; font-size: 10.2px;" y="0" x="0" id="text-entity-Reservation-70007923-3dac-5120-988e-1bc40ae9999e-attr-1-name" class="er entityLabel">id</text><rect height="21" width="23.803314208984375" y="23.5" x="173.23716735839844" class="er attributeBoxOdd"/><text transform="translate(178.23716735839844,34)" style="dominant-baseline: middle; font-size: 10.2px;" y="0" x="0" id="text-entity-Reservation-70007923-3dac-5120-988e-1bc40ae9999e-attr-1-key" class="er entityLabel">PK</text><rect height="21" width="101.30757904052734" y="23.5" x="197.0404815673828" class="er attributeBoxOdd"/><text transform="translate(202.0404815673828,34)" style="dominant-baseline: middle; font-size: 10.2px;" y="0" x="0" id="text-entity-Reservation-70007923-3dac-5120-988e-1bc40ae9999e-attr-1-comment" class="er entityLabel">Primary Key</text><rect height="21" width="57.046875" y="44.5" x="0" class="er attributeBoxEven"/><text transform="translate(5,55)" style="dominant-baseline: middle; font-size: 10.2px;" y="0" x="0" id="text-entity-Reservation-70007923-3dac-5120-988e-1bc40ae9999e-attr-2-type" class="er entityLabel">timestamp</text><rect height="21" width="116.19029235839844" y="44.5" x="57.046875" class="er attributeBoxEven"/><text transform="translate(62.046875,55)" style="dominant-baseline: middle; font-size: 10.2px;" y="0" x="0" id="text-entity-Reservation-70007923-3dac-5120-988e-1bc40ae9999e-attr-2-name" class="er entityLabel">createdAt</text><rect height="21" width="23.803314208984375" y="44.5" x="173.23716735839844" class="er attributeBoxEven"/><text transform="translate(178.23716735839844,55)" style="dominant-baseline: middle; font-size: 10.2px;" y="0" x="0" id="text-entity-Reservation-70007923-3dac-5120-988e-1bc40ae9999e-attr-2-key" class="er entityLabel"/><rect height="21" width="101.30757904052734" y="44.5" x="197.0404815673828" class="er attributeBoxEven"/><text transform="translate(202.0404815673828,55)" style="dominant-baseline: middle; font-size: 10.2px;" y="0" x="0" id="text-entity-Reservation-70007923-3dac-5120-988e-1bc40ae9999e-attr-2-comment" class="er entityLabel">Creation Timestamp</text><rect height="21" width="57.046875" y="65.5" x="0" class="er attributeBoxOdd"/><text transform="translate(5,76)" style="dominant-baseline: middle; font-size: 10.2px;" y="0" x="0" id="text-entity-Reservation-70007923-3dac-5120-988e-1bc40ae9999e-attr-3-type" class="er entityLabel">json</text><rect height="21" width="116.19029235839844" y="65.5" x="57.046875" class="er attributeBoxOdd"/><text transform="translate(62.046875,76)" style="dominant-baseline: middle; font-size: 10.2px;" y="0" x="0" id="text-entity-Reservation-70007923-3dac-5120-988e-1bc40ae9999e-attr-3-name" class="er entityLabel">details</text><rect height="21" width="23.803314208984375" y="65.5" x="173.23716735839844" class="er attributeBoxOdd"/><text transform="translate(178.23716735839844,76)" style="dominant-baseline: middle; font-size: 10.2px;" y="0" x="0" id="text-entity-Reservation-70007923-3dac-5120-988e-1bc40ae9999e-attr-3-key" class="er entityLabel"/><rect height="21" width="101.30757904052734" y="65.5" x="197.0404815673828" class="er attributeBoxOdd"/><text transform="translate(202.0404815673828,76)" style="dominant-baseline: middle; font-size: 10.2px;" y="0" x="0" id="text-entity-Reservation-70007923-3dac-5120-988e-1bc40ae9999e-attr-3-comment" class="er entityLabel">Reservation Details</text><rect height="21" width="57.046875" y="86.5" x="0" class="er attributeBoxEven"/><text transform="translate(5,97)" style="dominant-baseline: middle; font-size: 10.2px;" y="0" x="0" id="text-entity-Reservation-70007923-3dac-5120-988e-1bc40ae9999e-attr-4-type" class="er entityLabel">boolean</text><rect height="21" width="116.19029235839844" y="86.5" x="57.046875" class="er attributeBoxEven"/><text transform="translate(62.046875,97)" style="dominant-baseline: middle; font-size: 10.2px;" y="0" x="0" id="text-entity-Reservation-70007923-3dac-5120-988e-1bc40ae9999e-attr-4-name" class="er entityLabel">hasCompletedPayment</text><rect height="21" width="23.803314208984375" y="86.5" x="173.23716735839844" class="er attributeBoxEven"/><text transform="translate(178.23716735839844,97)" style="dominant-baseline: middle; font-size: 10.2px;" y="0" x="0" id="text-entity-Reservation-70007923-3dac-5120-988e-1bc40ae9999e-attr-4-key" class="er entityLabel"/><rect height="21" width="101.30757904052734" y="86.5" x="197.0404815673828" class="er attributeBoxEven"/><text transform="translate(202.0404815673828,97)" style="dominant-baseline: middle; font-size: 10.2px;" y="0" x="0" id="text-entity-Reservation-70007923-3dac-5120-988e-1bc40ae9999e-attr-4-comment" class="er entityLabel">Payment Status</text><rect height="21" width="57.046875" y="107.5" x="0" class="er attributeBoxOdd"/><text transform="translate(5,118)" style="dominant-baseline: middle; font-size: 10.2px;" y="0" x="0" id="text-entity-Reservation-70007923-3dac-5120-988e-1bc40ae9999e-attr-5-type" class="er entityLabel">uuid</text><rect height="21" width="116.19029235839844" y="107.5" x="57.046875" class="er attributeBoxOdd"/><text transform="translate(62.046875,118)" style="dominant-baseline: middle; font-size: 10.2px;" y="0" x="0" id="text-entity-Reservation-70007923-3dac-5120-988e-1bc40ae9999e-attr-5-name" class="er entityLabel">userId</text><rect height="21" width="23.803314208984375" y="107.5" x="173.23716735839844" class="er attributeBoxOdd"/><text transform="translate(178.23716735839844,118)" style="dominant-baseline: middle; font-size: 10.2px;" y="0" x="0" id="text-entity-Reservation-70007923-3dac-5120-988e-1bc40ae9999e-attr-5-key" class="er entityLabel">FK</text><rect height="21" width="101.30757904052734" y="107.5" x="197.0404815673828" class="er attributeBoxOdd"/><text transform="translate(202.0404815673828,118)" style="dominant-baseline: middle; font-size: 10.2px;" y="0" x="0" id="text-entity-Reservation-70007923-3dac-5120-988e-1bc40ae9999e-attr-5-comment" class="er entityLabel">Foreign Key to User</text></g><g transform="translate(766.4269104003906,353.5 )" id="entity-HealthRecord-f73c44ab-6911-55f9-9e6e-e4a5aa57c4aa"><rect height="275.5" width="326.3954162597656" y="0" x="0" class="er entityBox"/><text transform="translate(163.1977081298828,11.75)" style="dominant-baseline: middle; text-anchor: middle; font-size: 12px;" y="0" x="0" id="text-entity-HealthRecord-f73c44ab-6911-55f9-9e6e-e4a5aa57c4aa" class="er entityLabel">HealthRecord</text><rect height="21" width="57.046875" y="23.5" x="0" class="er attributeBoxOdd"/><text transform="translate(5,34)" style="dominant-baseline: middle; font-size: 10.2px;" y="0" x="0" id="text-entity-HealthRecord-f73c44ab-6911-55f9-9e6e-e4a5aa57c4aa-attr-1-type" class="er entityLabel">uuid</text><rect height="21" width="61.59375" y="23.5" x="57.046875" class="er attributeBoxOdd"/><text transform="translate(62.046875,34)" style="dominant-baseline: middle; font-size: 10.2px;" y="0" x="0" id="text-entity-HealthRecord-f73c44ab-6911-55f9-9e6e-e4a5aa57c4aa-attr-1-name" class="er entityLabel">id</text><rect height="21" width="23.803314208984375" y="23.5" x="118.640625" class="er attributeBoxOdd"/><text transform="translate(123.640625,34)" style="dominant-baseline: middle; font-size: 10.2px;" y="0" x="0" id="text-entity-HealthRecord-f73c44ab-6911-55f9-9e6e-e4a5aa57c4aa-attr-1-key" class="er entityLabel">PK</text><rect height="21" width="183.95147705078125" y="23.5" x="142.44393920898438" class="er attributeBoxOdd"/><text transform="translate(147.44393920898438,34)" style="dominant-baseline: middle; font-size: 10.2px;" y="0" x="0" id="text-entity-HealthRecord-f73c44ab-6911-55f9-9e6e-e4a5aa57c4aa-attr-1-comment" class="er entityLabel">Primary Key</text><rect height="21" width="57.046875" y="44.5" x="0" class="er attributeBoxEven"/><text transform="translate(5,55)" style="dominant-baseline: middle; font-size: 10.2px;" y="0" x="0" id="text-entity-HealthRecord-f73c44ab-6911-55f9-9e6e-e4a5aa57c4aa-attr-2-type" class="er entityLabel">date</text><rect height="21" width="61.59375" y="44.5" x="57.046875" class="er attributeBoxEven"/><text transform="translate(62.046875,55)" style="dominant-baseline: middle; font-size: 10.2px;" y="0" x="0" id="text-entity-HealthRecord-f73c44ab-6911-55f9-9e6e-e4a5aa57c4aa-attr-2-name" class="er entityLabel">date</text><rect height="21" width="23.803314208984375" y="44.5" x="118.640625" class="er attributeBoxEven"/><text transform="translate(123.640625,55)" style="dominant-baseline: middle; font-size: 10.2px;" y="0" x="0" id="text-entity-HealthRecord-f73c44ab-6911-55f9-9e6e-e4a5aa57c4aa-attr-2-key" class="er entityLabel"/><rect height="21" width="183.95147705078125" y="44.5" x="142.44393920898438" class="er attributeBoxEven"/><text transform="translate(147.44393920898438,55)" style="dominant-baseline: middle; font-size: 10.2px;" y="0" x="0" id="text-entity-HealthRecord-f73c44ab-6911-55f9-9e6e-e4a5aa57c4aa-attr-2-comment" class="er entityLabel">Record Date</text><rect height="21" width="57.046875" y="65.5" x="0" class="er attributeBoxOdd"/><text transform="translate(5,76)" style="dominant-baseline: middle; font-size: 10.2px;" y="0" x="0" id="text-entity-HealthRecord-f73c44ab-6911-55f9-9e6e-e4a5aa57c4aa-attr-3-type" class="er entityLabel">string</text><rect height="21" width="61.59375" y="65.5" x="57.046875" class="er attributeBoxOdd"/><text transform="translate(62.046875,76)" style="dominant-baseline: middle; font-size: 10.2px;" y="0" x="0" id="text-entity-HealthRecord-f73c44ab-6911-55f9-9e6e-e4a5aa57c4aa-attr-3-name" class="er entityLabel">recordType</text><rect height="21" width="23.803314208984375" y="65.5" x="118.640625" class="er attributeBoxOdd"/><text transform="translate(123.640625,76)" style="dominant-baseline: middle; font-size: 10.2px;" y="0" x="0" id="text-entity-HealthRecord-f73c44ab-6911-55f9-9e6e-e4a5aa57c4aa-attr-3-key" class="er entityLabel"/><rect height="21" width="183.95147705078125" y="65.5" x="142.44393920898438" class="er attributeBoxOdd"/><text transform="translate(147.44393920898438,76)" style="dominant-baseline: middle; font-size: 10.2px;" y="0" x="0" id="text-entity-HealthRecord-f73c44ab-6911-55f9-9e6e-e4a5aa57c4aa-attr-3-comment" class="er entityLabel">Record Type (period, symptom, mood)</text><rect height="21" width="57.046875" y="86.5" x="0" class="er attributeBoxEven"/><text transform="translate(5,97)" style="dominant-baseline: middle; font-size: 10.2px;" y="0" x="0" id="text-entity-HealthRecord-f73c44ab-6911-55f9-9e6e-e4a5aa57c4aa-attr-4-type" class="er entityLabel">integer</text><rect height="21" width="61.59375" y="86.5" x="57.046875" class="er attributeBoxEven"/><text transform="translate(62.046875,97)" style="dominant-baseline: middle; font-size: 10.2px;" y="0" x="0" id="text-entity-HealthRecord-f73c44ab-6911-55f9-9e6e-e4a5aa57c4aa-attr-4-name" class="er entityLabel">periodFlow</text><rect height="21" width="23.803314208984375" y="86.5" x="118.640625" class="er attributeBoxEven"/><text transform="translate(123.640625,97)" style="dominant-baseline: middle; font-size: 10.2px;" y="0" x="0" id="text-entity-HealthRecord-f73c44ab-6911-55f9-9e6e-e4a5aa57c4aa-attr-4-key" class="er entityLabel"/><rect height="21" width="183.95147705078125" y="86.5" x="142.44393920898438" class="er attributeBoxEven"/><text transform="translate(147.44393920898438,97)" style="dominant-baseline: middle; font-size: 10.2px;" y="0" x="0" id="text-entity-HealthRecord-f73c44ab-6911-55f9-9e6e-e4a5aa57c4aa-attr-4-comment" class="er entityLabel">Period Flow (1-5 scale)</text><rect height="21" width="57.046875" y="107.5" x="0" class="er attributeBoxOdd"/><text transform="translate(5,118)" style="dominant-baseline: middle; font-size: 10.2px;" y="0" x="0" id="text-entity-HealthRecord-f73c44ab-6911-55f9-9e6e-e4a5aa57c4aa-attr-5-type" class="er entityLabel">json</text><rect height="21" width="61.59375" y="107.5" x="57.046875" class="er attributeBoxOdd"/><text transform="translate(62.046875,118)" style="dominant-baseline: middle; font-size: 10.2px;" y="0" x="0" id="text-entity-HealthRecord-f73c44ab-6911-55f9-9e6e-e4a5aa57c4aa-attr-5-name" class="er entityLabel">symptoms</text><rect height="21" width="23.803314208984375" y="107.5" x="118.640625" class="er attributeBoxOdd"/><text transform="translate(123.640625,118)" style="dominant-baseline: middle; font-size: 10.2px;" y="0" x="0" id="text-entity-HealthRecord-f73c44ab-6911-55f9-9e6e-e4a5aa57c4aa-attr-5-key" class="er entityLabel"/><rect height="21" width="183.95147705078125" y="107.5" x="142.44393920898438" class="er attributeBoxOdd"/><text transform="translate(147.44393920898438,118)" style="dominant-baseline: middle; font-size: 10.2px;" y="0" x="0" id="text-entity-HealthRecord-f73c44ab-6911-55f9-9e6e-e4a5aa57c4aa-attr-5-comment" class="er entityLabel">Symptoms Data (pain levels, location)</text><rect height="21" width="57.046875" y="128.5" x="0" class="er attributeBoxEven"/><text transform="translate(5,139)" style="dominant-baseline: middle; font-size: 10.2px;" y="0" x="0" id="text-entity-HealthRecord-f73c44ab-6911-55f9-9e6e-e4a5aa57c4aa-attr-6-type" class="er entityLabel">string</text><rect height="21" width="61.59375" y="128.5" x="57.046875" class="er attributeBoxEven"/><text transform="translate(62.046875,139)" style="dominant-baseline: middle; font-size: 10.2px;" y="0" x="0" id="text-entity-HealthRecord-f73c44ab-6911-55f9-9e6e-e4a5aa57c4aa-attr-6-name" class="er entityLabel">mood</text><rect height="21" width="23.803314208984375" y="128.5" x="118.640625" class="er attributeBoxEven"/><text transform="translate(123.640625,139)" style="dominant-baseline: middle; font-size: 10.2px;" y="0" x="0" id="text-entity-HealthRecord-f73c44ab-6911-55f9-9e6e-e4a5aa57c4aa-attr-6-key" class="er entityLabel"/><rect height="21" width="183.95147705078125" y="128.5" x="142.44393920898438" class="er attributeBoxEven"/><text transform="translate(147.44393920898438,139)" style="dominant-baseline: middle; font-size: 10.2px;" y="0" x="0" id="text-entity-HealthRecord-f73c44ab-6911-55f9-9e6e-e4a5aa57c4aa-attr-6-comment" class="er entityLabel">Mood (happy, sad, anxious)</text><rect height="21" width="57.046875" y="149.5" x="0" class="er attributeBoxOdd"/><text transform="translate(5,160)" style="dominant-baseline: middle; font-size: 10.2px;" y="0" x="0" id="text-entity-HealthRecord-f73c44ab-6911-55f9-9e6e-e4a5aa57c4aa-attr-7-type" class="er entityLabel">integer</text><rect height="21" width="61.59375" y="149.5" x="57.046875" class="er attributeBoxOdd"/><text transform="translate(62.046875,160)" style="dominant-baseline: middle; font-size: 10.2px;" y="0" x="0" id="text-entity-HealthRecord-f73c44ab-6911-55f9-9e6e-e4a5aa57c4aa-attr-7-name" class="er entityLabel">sleepHours</text><rect height="21" width="23.803314208984375" y="149.5" x="118.640625" class="er attributeBoxOdd"/><text transform="translate(123.640625,160)" style="dominant-baseline: middle; font-size: 10.2px;" y="0" x="0" id="text-entity-HealthRecord-f73c44ab-6911-55f9-9e6e-e4a5aa57c4aa-attr-7-key" class="er entityLabel"/><rect height="21" width="183.95147705078125" y="149.5" x="142.44393920898438" class="er attributeBoxOdd"/><text transform="translate(147.44393920898438,160)" style="dominant-baseline: middle; font-size: 10.2px;" y="0" x="0" id="text-entity-HealthRecord-f73c44ab-6911-55f9-9e6e-e4a5aa57c4aa-attr-7-comment" class="er entityLabel">Hours of Sleep</text><rect height="21" width="57.046875" y="170.5" x="0" class="er attributeBoxEven"/><text transform="translate(5,181)" style="dominant-baseline: middle; font-size: 10.2px;" y="0" x="0" id="text-entity-HealthRecord-f73c44ab-6911-55f9-9e6e-e4a5aa57c4aa-attr-8-type" class="er entityLabel">integer</text><rect height="21" width="61.59375" y="170.5" x="57.046875" class="er attributeBoxEven"/><text transform="translate(62.046875,181)" style="dominant-baseline: middle; font-size: 10.2px;" y="0" x="0" id="text-entity-HealthRecord-f73c44ab-6911-55f9-9e6e-e4a5aa57c4aa-attr-8-name" class="er entityLabel">stressLevel</text><rect height="21" width="23.803314208984375" y="170.5" x="118.640625" class="er attributeBoxEven"/><text transform="translate(123.640625,181)" style="dominant-baseline: middle; font-size: 10.2px;" y="0" x="0" id="text-entity-HealthRecord-f73c44ab-6911-55f9-9e6e-e4a5aa57c4aa-attr-8-key" class="er entityLabel"/><rect height="21" width="183.95147705078125" y="170.5" x="142.44393920898438" class="er attributeBoxEven"/><text transform="translate(147.44393920898438,181)" style="dominant-baseline: middle; font-size: 10.2px;" y="0" x="0" id="text-entity-HealthRecord-f73c44ab-6911-55f9-9e6e-e4a5aa57c4aa-attr-8-comment" class="er entityLabel">Stress Level (1-5 scale)</text><rect height="21" width="57.046875" y="191.5" x="0" class="er attributeBoxOdd"/><text transform="translate(5,202)" style="dominant-baseline: middle; font-size: 10.2px;" y="0" x="0" id="text-entity-HealthRecord-f73c44ab-6911-55f9-9e6e-e4a5aa57c4aa-attr-9-type" class="er entityLabel">string</text><rect height="21" width="61.59375" y="191.5" x="57.046875" class="er attributeBoxOdd"/><text transform="translate(62.046875,202)" style="dominant-baseline: middle; font-size: 10.2px;" y="0" x="0" id="text-entity-HealthRecord-f73c44ab-6911-55f9-9e6e-e4a5aa57c4aa-attr-9-name" class="er entityLabel">notes</text><rect height="21" width="23.803314208984375" y="191.5" x="118.640625" class="er attributeBoxOdd"/><text transform="translate(123.640625,202)" style="dominant-baseline: middle; font-size: 10.2px;" y="0" x="0" id="text-entity-HealthRecord-f73c44ab-6911-55f9-9e6e-e4a5aa57c4aa-attr-9-key" class="er entityLabel"/><rect height="21" width="183.95147705078125" y="191.5" x="142.44393920898438" class="er attributeBoxOdd"/><text transform="translate(147.44393920898438,202)" style="dominant-baseline: middle; font-size: 10.2px;" y="0" x="0" id="text-entity-HealthRecord-f73c44ab-6911-55f9-9e6e-e4a5aa57c4aa-attr-9-comment" class="er entityLabel">Additional Notes</text><rect height="21" width="57.046875" y="212.5" x="0" class="er attributeBoxEven"/><text transform="translate(5,223)" style="dominant-baseline: middle; font-size: 10.2px;" y="0" x="0" id="text-entity-HealthRecord-f73c44ab-6911-55f9-9e6e-e4a5aa57c4aa-attr-10-type" class="er entityLabel">timestamp</text><rect height="21" width="61.59375" y="212.5" x="57.046875" class="er attributeBoxEven"/><text transform="translate(62.046875,223)" style="dominant-baseline: middle; font-size: 10.2px;" y="0" x="0" id="text-entity-HealthRecord-f73c44ab-6911-55f9-9e6e-e4a5aa57c4aa-attr-10-name" class="er entityLabel">createdAt</text><rect height="21" width="23.803314208984375" y="212.5" x="118.640625" class="er attributeBoxEven"/><text transform="translate(123.640625,223)" style="dominant-baseline: middle; font-size: 10.2px;" y="0" x="0" id="text-entity-HealthRecord-f73c44ab-6911-55f9-9e6e-e4a5aa57c4aa-attr-10-key" class="er entityLabel"/><rect height="21" width="183.95147705078125" y="212.5" x="142.44393920898438" class="er attributeBoxEven"/><text transform="translate(147.44393920898438,223)" style="dominant-baseline: middle; font-size: 10.2px;" y="0" x="0" id="text-entity-HealthRecord-f73c44ab-6911-55f9-9e6e-e4a5aa57c4aa-attr-10-comment" class="er entityLabel">Creation Timestamp</text><rect height="21" width="57.046875" y="233.5" x="0" class="er attributeBoxOdd"/><text transform="translate(5,244)" style="dominant-baseline: middle; font-size: 10.2px;" y="0" x="0" id="text-entity-HealthRecord-f73c44ab-6911-55f9-9e6e-e4a5aa57c4aa-attr-11-type" class="er entityLabel">timestamp</text><rect height="21" width="61.59375" y="233.5" x="57.046875" class="er attributeBoxOdd"/><text transform="translate(62.046875,244)" style="dominant-baseline: middle; font-size: 10.2px;" y="0" x="0" id="text-entity-HealthRecord-f73c44ab-6911-55f9-9e6e-e4a5aa57c4aa-attr-11-name" class="er entityLabel">updatedAt</text><rect height="21" width="23.803314208984375" y="233.5" x="118.640625" class="er attributeBoxOdd"/><text transform="translate(123.640625,244)" style="dominant-baseline: middle; font-size: 10.2px;" y="0" x="0" id="text-entity-HealthRecord-f73c44ab-6911-55f9-9e6e-e4a5aa57c4aa-attr-11-key" class="er entityLabel"/><rect height="21" width="183.95147705078125" y="233.5" x="142.44393920898438" class="er attributeBoxOdd"/><text transform="translate(147.44393920898438,244)" style="dominant-baseline: middle; font-size: 10.2px;" y="0" x="0" id="text-entity-HealthRecord-f73c44ab-6911-55f9-9e6e-e4a5aa57c4aa-attr-11-comment" class="er entityLabel">Last Update Timestamp</text><rect height="21" width="57.046875" y="254.5" x="0" class="er attributeBoxEven"/><text transform="translate(5,265)" style="dominant-baseline: middle; font-size: 10.2px;" y="0" x="0" id="text-entity-HealthRecord-f73c44ab-6911-55f9-9e6e-e4a5aa57c4aa-attr-12-type" class="er entityLabel">uuid</text><rect height="21" width="61.59375" y="254.5" x="57.046875" class="er attributeBoxEven"/><text transform="translate(62.046875,265)" style="dominant-baseline: middle; font-size: 10.2px;" y="0" x="0" id="text-entity-HealthRecord-f73c44ab-6911-55f9-9e6e-e4a5aa57c4aa-attr-12-name" class="er entityLabel">userId</text><rect height="21" width="23.803314208984375" y="254.5" x="118.640625" class="er attributeBoxEven"/><text transform="translate(123.640625,265)" style="dominant-baseline: middle; font-size: 10.2px;" y="0" x="0" id="text-entity-HealthRecord-f73c44ab-6911-55f9-9e6e-e4a5aa57c4aa-attr-12-key" class="er entityLabel">FK</text><rect height="21" width="183.95147705078125" y="254.5" x="142.44393920898438" class="er attributeBoxEven"/><text transform="translate(147.44393920898438,265)" style="dominant-baseline: middle; font-size: 10.2px;" y="0" x="0" id="text-entity-HealthRecord-f73c44ab-6911-55f9-9e6e-e4a5aa57c4aa-attr-12-comment" class="er entityLabel">Foreign Key to User</text></g><rect height="13.5" width="52.525390625" y="280.1121520996094" x="179.77142333984375" class="er relationshipLabelBox"/><text style="text-anchor: middle; dominant-baseline: middle; font-size: 12px;" y="286.8621520996094" x="206.03411865234375" id="rel4" class="er relationshipLabel">has many</text><rect height="13.5" width="68.521484375" y="333.5" x="482.99224853515625" class="er relationshipLabelBox"/><text style="text-anchor: middle; dominant-baseline: middle; font-size: 12px;" y="340.25" x="517.2529907226562" id="rel5" class="er relationshipLabel">makes many</text><rect height="13.5" width="52.525390625" y="253.57644653320312" x="792.51171875" class="er relationshipLabelBox"/><text style="text-anchor: middle; dominant-baseline: middle; font-size: 12px;" y="260.3264465332031" x="818.7744140625" id="rel6" class="er relationshipLabel">has many</text></svg>