<svg width="242" height="58" viewBox="0 0 242 58" fill="none" xmlns="http://www.w3.org/2000/svg">
<path d="M127.334 4.15534C124.001 9.622 124.001 10.5553 127.467 10.5553C130.801 10.5553 135.334 12.822 135.334 14.6887C135.334 15.3553 133.601 15.0887 131.334 13.8887C129.201 12.822 126.134 11.8887 124.401 11.8887C120.934 11.8887 115.334 15.222 115.334 17.3553C115.334 19.3553 123.734 23.8887 127.334 23.8887C136.401 23.7553 140.667 11.4887 134.801 2.28867C132.667 -1.31133 130.267 -0.644663 127.334 4.15534Z" fill="white"/>
<path d="M194.4 14.2893L190 14.6893V34.4226C190 47.8893 190.533 54.556 191.6 55.6226C194 58.0226 200 57.4893 202.533 54.6893C204.8 52.156 204.8 52.156 202 52.8226C199.067 53.6226 199.067 53.4893 199.467 34.156C199.733 23.356 199.6 14.4226 199.2 14.2893C198.933 14.0226 196.667 14.0226 194.4 14.2893Z" fill="white"/>
<path d="M7.33333 22.1542C0.133333 24.8209 -1.73333 33.7542 4 38.2876C5.73333 39.7542 9.2 41.6209 11.6 42.5542C17.8667 45.0876 20.6667 47.7542 20.6667 51.3542C20.6667 53.6209 19.7333 54.6876 17.0667 55.3542C12.8 56.4209 10.1333 54.9542 7.33333 49.7542C4.53333 44.8209 0 44.4209 0 49.2209C0 56.2876 16.9333 59.8876 25.4667 54.6876C30.5333 51.6209 32.2667 46.1542 29.4667 41.8876C28.2667 40.1542 23.4667 36.8209 18.6667 34.5542C10.6667 30.8209 9.86667 30.0209 10.2667 26.8209C10.5333 24.0209 11.4667 23.0876 14.2667 22.8209C17.3333 22.4209 18.5333 23.2209 20.8 27.0876C24.1333 32.6876 28.6667 33.6209 28.6667 28.8209C28.6667 23.4876 15.2 19.2209 7.33333 22.1542Z" fill="white"/>
<path d="M46.5341 23.755C36.9341 29.6217 34.8008 50.0217 43.3341 54.955C45.3341 56.2884 48.5341 57.2217 50.2674 57.2217C53.8674 57.2217 59.3341 53.755 59.3341 51.6217C59.3341 50.8217 58.2674 51.0884 56.9341 52.2884C51.2008 57.4884 48.6674 53.355 48.6674 38.955C48.6674 31.6217 49.3341 27.6217 50.8008 25.4884C53.0674 22.2884 58.5341 21.4884 60.2674 24.155C60.8008 25.0884 61.6008 32.4217 62.0008 40.4217C62.8008 56.6884 64.0008 58.955 70.8008 56.555C74.5341 55.2217 77.0674 51.4884 73.7341 52.155C72.4008 52.4217 71.8674 49.355 71.6008 38.4217L71.2008 24.2884L66.1341 22.6884C58.6674 20.555 51.2008 20.8217 46.5341 23.755Z" fill="white"/>
<path d="M82.7998 23.356C81.5998 24.4227 80.6665 26.156 80.7998 26.956C80.7998 28.156 81.0665 28.0227 81.5998 26.8227C83.5998 21.8893 84.6665 26.956 84.6665 41.2227V57.2227H89.7331H94.6665L94.5331 40.4227C94.2665 22.556 93.7331 21.2227 87.7331 21.2227C86.1331 21.2227 83.8665 22.156 82.7998 23.356Z" fill="white"/>
<path d="M101.467 24.0216C99.6 25.4883 98 27.3549 98 28.2883C98 29.0883 99.2 28.4216 100.8 26.6883C105.6 21.6216 106.667 23.7549 107.333 39.3549C107.733 47.3549 108.533 54.6883 109.067 55.4883C110.8 58.1549 117.333 57.4883 120 54.5549C122 52.2883 122.133 51.8883 120.4 52.5549C118.533 53.2216 118.267 51.4883 117.733 39.2216C117.333 27.0883 116.933 24.6883 114.667 23.0883C111.067 20.4216 105.6 20.8216 101.467 24.0216Z" fill="white"/>
<path d="M158 22.9559C153.867 24.9559 150 32.4225 150 38.1559C150 44.6892 153.6 52.4225 157.867 54.9559C165.733 59.6225 180.4 55.6225 181.733 48.6892C182.267 46.2892 182 46.4225 178.667 48.9559C173.733 52.9559 167.333 52.6892 163.467 48.6892C157.067 41.8892 159.067 23.6225 166.133 22.8225C170 22.4225 172.267 24.4225 172.933 29.2225C173.467 33.7559 179.733 34.0225 180.4 29.6225C181.333 23.2225 166.267 18.8225 158 22.9559Z" fill="white"/>
<path d="M217.199 22.688C211.066 25.7547 207.333 37.7547 209.866 45.6214C212.533 53.488 217.066 56.5547 226.133 56.5547C233.199 56.5547 234.399 56.1547 238.266 52.288C243.066 47.488 242.666 44.688 237.733 49.088C235.466 51.2214 233.333 51.888 229.466 51.6214C221.866 51.088 218.666 46.288 218.933 35.888C219.199 26.288 221.066 22.5547 225.333 22.5547C229.333 22.5547 231.333 26.0214 231.333 32.5547C231.333 36.288 230.399 38.4214 227.333 41.2214L223.333 44.9547L228.666 43.6214C239.333 40.8214 244.533 30.4214 238.133 24.688C235.066 21.888 221.333 20.5547 217.199 22.688Z" fill="white"/>
<path d="M138.001 24.422C138.001 25.4887 136.534 27.4887 134.667 28.9554C131.601 31.3554 131.334 32.5554 131.334 41.8887C131.334 47.4887 132.001 53.222 132.667 54.6887C134.534 58.022 139.601 57.8887 143.467 54.5554C146.267 52.1554 146.401 51.8887 144.134 52.1554C141.601 52.5554 141.467 51.7554 141.867 40.2887C142.001 33.4887 141.867 26.822 141.334 25.222C140.401 22.1554 138.001 21.622 138.001 24.422Z" fill="white"/>
</svg>
